<svg xmlns="http://www.w3.org/2000/svg" viewBox="0 0 623.62 255.12"><defs><style>.cls-1{fill:#fff;}.cls-2{isolation:isolate;}.cls-3{fill:#333;}.cls-4{fill:#e59827;}.cls-5{fill:#f7b33e;}.cls-6{fill:#5bacbc;}.cls-7{fill:#5093a1;}.cls-8{fill:#74a56e;}.cls-9{fill:#83ba7b;}</style></defs><title>seesaw</title><g id="BG"><rect class="cls-1" width="623.62" height="255.12"/></g><g id="Logo"><g class="cls-2"><path class="cls-3" d="M19.16,153.52c4.39,8.06,13.92,12.16,23.15,12.16,10.85,0,18.91-4.68,18.91-15.53,0-20.67-44.12-13.19-44.12-38,0-11.58,10-19.2,23-19.2,11.13,0,17.58,4,24.18,12l-4.4,3.81c-5.42-7-10.7-10.27-20.08-10.27C31,98.55,23,103.39,23,112c0,19,44.11,11.87,44.11,38.11,0,14.07-10,21.11-24.91,21.11-11,0-22.28-4.55-28-14.52Z"/><path class="cls-3" d="M129.08,151c-4.26,13.34-11.88,20.23-25.36,20.23C87,171.26,77.19,156.6,77.19,132S87,92.69,103.72,92.69c18.47,0,26.09,14.66,26.09,39.28v2.2H83.2c.44,19.94,7.77,31.51,20.52,31.51,10.11,0,16.12-4.83,19.78-16.56Zm-5.43-22.43c-.58-19.78-6.15-30.34-19.93-30.34-12.46,0-19.79,11.14-20.52,30.34Z"/><path class="cls-3" d="M193.12,151c-4.25,13.34-11.88,20.23-25.36,20.23-16.71,0-26.53-14.66-26.53-39.29s9.82-39.28,26.53-39.28c18.47,0,26.09,14.66,26.09,39.28v2.2H147.24c.44,19.94,7.77,31.51,20.52,31.51,10.11,0,16.12-4.83,19.79-16.56Zm-5.43-22.43c-.58-19.78-6.15-30.34-19.93-30.34-12.46,0-19.79,11.14-20.52,30.34Z"/><path class="cls-3" d="M209.53,153.52c4.39,8.06,13.92,12.16,23.15,12.16,10.85,0,18.91-4.68,18.91-15.53,0-20.67-44.12-13.19-44.12-38,0-11.58,10-19.2,23-19.2,11.14,0,17.59,4,24.19,12l-4.4,3.81c-5.42-7-10.7-10.27-20.08-10.27-8.79,0-16.85,4.84-16.85,13.49,0,19,44.11,11.87,44.11,38.11,0,14.07-10,21.11-24.91,21.11-11,0-22.28-4.55-28-14.52Z"/><path class="cls-3" d="M313.29,169.79a52.62,52.62,0,0,1-1.91-14.07h-.29c-3.22,7.91-9.38,15.54-21.11,15.54-13.33,0-22-8.51-22-21.26,0-15.53,14.07-24.33,43.09-24.18v-7c0-14.36-6.89-20.81-16.27-20.81-8.5,0-14.22,4.54-18.17,12.31l-5.13-2.93c5.42-10,14.07-14.8,23.89-14.8,12.46,0,21.54,8.94,21.54,26.38V157c0,8.21,2.35,12.75,2.35,12.75Zm-2.2-38.4c-24.33-1-37.23,5.57-37.23,18.61,0,10.26,7.48,15.68,16.12,15.68,14.08,0,21.11-12.89,21.11-27.4Z"/><path class="cls-3" d="M388,169.79l-15.3-54.53c-2.11-7.62-3-12.75-3-12.75h-.26s-.93,5.13-3,12.75l-15.16,54.53h-4L325.52,94.16h5.54l15,52c1.32,4.54,3,13.34,3,13.34h.27s1.71-8.8,3-13.34l14.9-52h4.49l14.9,52c1.32,4.69,3.17,13.34,3.17,13.34h.26s1.71-8.65,3-13.34l14.91-52h5.67L392,169.79Z"/></g><path class="cls-4" d="M441.87,48.7l-.82,60.52c0,2,0,5.27.06,6.92l4.36,1.6,59.64,19.74c1.49.45,5,1.25,6.52,1.61v0L442,41C441.92,43.65,441.87,47.62,441.87,48.7Z"/><path class="cls-5" d="M546.77,95.22,449.25,45c-1.25-.68-4.93-2.75-7.3-4.08V41l69.68,98.07c1.21-1.2,4-4,5.11-5.29l31.36-30.95c1-1.09,2.95-3,4.27-4.35C550.8,97.54,548.39,96.11,546.77,95.22Z"/><path class="cls-6" d="M508.31,148.29c-1.49-.48-4.57-1.48-5.81-1.94l-36.14-11.09c-.8-.2-5.13-1.49-7.23-2.12-.84,1.66-2.48,4.87-3.42,6.75L433.89,182.3c-.61,1.12-1.57,3-2.22,4.35l76.64-38.32Z"/><path class="cls-7" d="M519.72,205.42l-10.3-50.66c-.3-1.54-.85-4.84-1.11-6.43l-76.64,38.32a.08.08,0,0,0,0,0c3.44,1.28,8.45,3.12,9.6,3.45l71.63,21.4c1.67.56,5.87,1.84,8.49,2.63C520.91,211.49,520.12,207.17,519.72,205.42Z"/><path class="cls-8" d="M609.45,150.72c-1.33-.87-3-1.94-3.84-2.41l-49-30.91-5.85-4.16c-1.22,1.1-3.46,3.12-4.72,4.38L522.13,141.9c-1,1-2.9,2.85-3.82,3.75v0l91,5.08Z"/><path class="cls-9" d="M518.31,145.69c.16.9.42,2.32.5,2.75l8.64,39.9c.37,1.57,1.13,5.18,1.59,7.43,1.81-1.05,4.51-2.6,5.44-3.06l69.08-38.66c1.07-.6,3.83-2.16,5.78-3.28Z"/></g></svg>